<?xml version="1.0" encoding="iso-8859-1"?>
<!-- Generator: Adobe Illustrator 18.1.1, SVG Export Plug-In . SVG Version: 6.00 Build 0)  -->
<svg version="1.1" id="Capa_1" xmlns="http://www.w3.org/2000/svg" xmlns:xlink="http://www.w3.org/1999/xlink" x="0px" y="0px"
	 viewBox="0 0 612 612" style="enable-background:new 0 0 612 612;" xml:space="preserve">
<g>
	<g>
		<path d="M85.11,164.084V576.21c0,20.248,19.365,35.79,39.613,35.79h368.15c20.248,0,34.017-15.542,34.017-35.79V164.084H85.11z
			 M402.161,210.103c15.248,0,27.611,12.364,27.611,27.611s-12.364,27.611-27.611,27.611c-15.248,0-27.611-12.364-27.611-27.611
			C374.55,222.461,386.907,210.103,402.161,210.103z M214.717,210.103c15.248,0,27.611,12.364,27.611,27.611
			s-12.364,27.611-27.611,27.611s-27.611-12.364-27.611-27.611C187.106,222.461,199.47,210.103,214.717,210.103z M490.075,495.419
			h-368.15v-36.815h368.15V495.419z M490.075,421.789h-368.15v-73.63h368.15V421.789z"/>
		<path d="M232.37,111.93c0-42.951,32.299-74.955,73.63-74.955s73.63,32.004,73.63,74.955v33.747h36.815V111.93v-0.11
			C416.445,50.093,367.727,0,306,0S195.555,50.117,195.555,111.85v0.08v33.747h36.815L232.37,111.93L232.37,111.93z"/>
	</g>
</g>
<g>
</g>
<g>
</g>
<g>
</g>
<g>
</g>
<g>
</g>
<g>
</g>
<g>
</g>
<g>
</g>
<g>
</g>
<g>
</g>
<g>
</g>
<g>
</g>
<g>
</g>
<g>
</g>
<g>
</g>
</svg>
