<?xml version="1.0" encoding="iso-8859-1"?>
<!-- Generator: Adobe Illustrator 17.1.0, SVG Export Plug-In . SVG Version: 6.00 Build 0)  -->
<!DOCTYPE svg PUBLIC "-//W3C//DTD SVG 1.1//EN" "http://www.w3.org/Graphics/SVG/1.1/DTD/svg11.dtd">
<svg version="1.1" id="Capa_1" xmlns="http://www.w3.org/2000/svg" xmlns:xlink="http://www.w3.org/1999/xlink" x="0px" y="0px"
	 viewBox="0 0 191.232 191.232" style="enable-background:new 0 0 191.232 191.232;" xml:space="preserve">
<path d="M37.884,191.232c-2.385,0-3.82-0.153-4.188-0.198c-0.627-0.072-1.236-0.34-1.726-0.807c-0.021-0.02-0.042-0.041-0.062-0.061
	L17.36,175.619c-5.505-5.504-5.505-14.461,0-19.965l27.606-27.606c2.667-2.667,6.211-4.135,9.982-4.135s7.316,1.469,9.982,4.135
	l13.635,13.635c4.235-0.31,20.305-2.727,38.892-21.313c18.718-18.718,20.65-34.241,20.817-38.311L124.599,68.38
	c-5.505-5.504-5.505-14.46,0-19.965l27.606-27.606c5.504-5.505,14.461-5.505,19.965,0l14.547,14.547
	c0.02,0.019,0.038,0.038,0.056,0.057c0.001,0.001,0,0.001,0.004,0.004c0.459,0.481,0.727,1.077,0.805,1.692
	c0.318,2.358,5.36,46.423-50.8,102.583C89.531,186.943,50.487,191.232,37.884,191.232z M78.636,147.697l-37.348,37.348
	c14.354-0.984,49.642-7.987,91.251-49.596c41.626-41.627,48.304-76.612,49.137-90.792l-37.398,37.398
	c-0.16,5.014-2.288,22.267-22.577,42.556C101.322,144.991,83.639,147.432,78.636,147.697z M54.949,129.916
	c-2.079,0-4.158,0.791-5.74,2.374l-27.606,27.606c-1.533,1.533-2.377,3.572-2.377,5.74c0,2.168,0.844,4.207,2.377,5.741
	l12.435,12.435l39.086-39.086L60.689,132.29C59.107,130.707,57.028,129.916,54.949,129.916z M162.188,22.673
	c-2.168,0-4.207,0.844-5.74,2.377l-27.606,27.606c-1.533,1.534-2.377,3.572-2.377,5.74s0.844,4.207,2.377,5.74l12.435,12.435
	l39.087-39.086l-12.435-12.435C166.395,23.518,164.356,22.673,162.188,22.673z M50.667,96.167c-1.657,0-3-1.343-3-3
	c0-26.966,21.938-48.904,48.904-48.904c1.657,0,3,1.343,3,3s-1.343,3-3,3c-23.657,0-42.904,19.247-42.904,42.904
	C53.667,94.824,52.323,96.167,50.667,96.167z M28.266,96.167c-1.657,0-3-1.343-3-3c0-39.317,31.987-71.305,71.305-71.305
	c1.657,0,3,1.343,3,3s-1.343,3-3,3c-36.009,0-65.305,29.295-65.305,65.305C31.266,94.824,29.923,96.167,28.266,96.167z
	 M6.403,96.167c-1.657,0-3-1.343-3-3C3.403,41.795,45.198,0,96.571,0c1.657,0,3,1.343,3,3s-1.343,3-3,3
	C48.506,6,9.403,45.103,9.403,93.167C9.403,94.824,8.06,96.167,6.403,96.167z"/>
<g>
</g>
<g>
</g>
<g>
</g>
<g>
</g>
<g>
</g>
<g>
</g>
<g>
</g>
<g>
</g>
<g>
</g>
<g>
</g>
<g>
</g>
<g>
</g>
<g>
</g>
<g>
</g>
<g>
</g>
</svg>
