<svg xmlns="http://www.w3.org/2000/svg" xmlns:xlink="http://www.w3.org/1999/xlink" version="1.1" width="16" height="16" viewBox="0 0 300 300" xml:space="preserve">
<desc>Created with Fabric.js 1.7.22</desc>
<defs>
</defs>
<g transform="translate(128 128) scale(0.72 0.72)" style="">
	<g style="stroke: none; stroke-width: 0; stroke-dasharray: none; stroke-linecap: butt; stroke-linejoin: miter; stroke-miterlimit: 10; fill: none; fill-rule: nonzero; opacity: 1;" transform="translate(-175.05 -175.05000000000004) scale(3.89 3.89)" >
	<path d="M 48.704 6 c 0.659 3.753 3.277 6.919 6.926 8.179 c 1.236 0.427 2.461 0.936 3.641 1.513 c 1.414 0.691 2.995 1.056 4.574 1.056 c 2.181 0 4.33 -0.694 6.113 -1.944 l 5.234 5.234 c -2.198 3.118 -2.584 7.214 -0.885 10.69 c 0.577 1.18 1.086 2.405 1.513 3.641 c 1.261 3.649 4.426 6.267 8.179 6.926 v 7.408 c -3.753 0.659 -6.919 3.277 -8.179 6.926 c -0.427 1.236 -0.936 2.461 -1.513 3.641 c -1.699 3.476 -1.313 7.572 0.885 10.69 l -5.234 5.234 c -1.783 -1.25 -3.932 -1.944 -6.113 -1.944 c -1.579 0 -3.16 0.365 -4.574 1.056 c -1.18 0.577 -2.405 1.086 -3.641 1.513 c -3.649 1.261 -6.267 4.426 -6.926 8.179 h -7.408 c -0.659 -3.753 -3.277 -6.918 -6.926 -8.179 c -1.236 -0.427 -2.461 -0.936 -3.641 -1.513 c -1.414 -0.691 -2.995 -1.056 -4.574 -1.056 c -2.181 0 -4.33 0.694 -6.113 1.944 l -5.234 -5.234 c 2.198 -3.118 2.584 -7.214 0.885 -10.69 c -0.577 -1.18 -1.086 -2.405 -1.513 -3.641 C 12.918 51.981 9.753 49.363 6 48.704 v -7.408 c 3.753 -0.659 6.919 -3.277 8.179 -6.926 c 0.427 -1.236 0.936 -2.461 1.513 -3.641 c 1.699 -3.476 1.313 -7.571 -0.885 -10.69 l 5.234 -5.234 c 1.783 1.25 3.932 1.944 6.113 1.944 c 1.579 0 3.161 -0.365 4.574 -1.056 c 1.18 -0.577 2.405 -1.086 3.641 -1.513 c 3.649 -1.261 6.267 -4.426 6.926 -8.179 H 48.704 M 73.012 11.979 h 0.005 H 73.012 M 22.867 11.979 h 0.005 H 22.867 M 52.699 0 H 37.301 c -1.018 0 -1.843 0.825 -1.843 1.843 v 2.293 c 0 1.952 -1.203 3.735 -3.047 4.372 c -1.482 0.512 -2.923 1.112 -4.317 1.794 c -0.618 0.302 -1.28 0.447 -1.939 0.447 c -1.202 0 -2.393 -0.482 -3.28 -1.369 l -1.644 -1.644 c -0.36 -0.36 -0.832 -0.54 -1.303 -0.54 c -0.472 0 -0.943 0.18 -1.303 0.54 L 7.736 18.624 c -0.72 0.72 -0.72 1.887 0 2.607 l 1.644 1.644 c 1.373 1.373 1.775 3.474 0.922 5.219 C 9.62 29.487 9.02 30.928 8.508 32.41 c -0.637 1.845 -2.42 3.047 -4.372 3.047 H 1.843 C 0.825 35.458 0 36.283 0 37.301 v 15.398 c 0 1.018 0.825 1.843 1.843 1.843 h 2.293 c 1.952 0 3.735 1.203 4.372 3.047 c 0.512 1.482 1.112 2.923 1.794 4.317 c 0.853 1.745 0.451 3.846 -0.922 5.219 l -1.644 1.644 c -0.72 0.72 -0.72 1.887 0 2.607 l 10.888 10.888 c 0.36 0.36 0.832 0.54 1.303 0.54 c 0.472 0 0.943 -0.18 1.303 -0.54 l 1.644 -1.644 c 0.887 -0.887 2.078 -1.369 3.28 -1.369 c 0.659 0 1.321 0.145 1.939 0.447 c 1.394 0.681 2.835 1.282 4.317 1.794 c 1.845 0.637 3.047 2.42 3.047 4.372 v 2.293 c 0 1.018 0.825 1.843 1.843 1.843 h 15.398 c 1.018 0 1.843 -0.825 1.843 -1.843 v -2.293 c 0 -1.952 1.203 -3.735 3.047 -4.372 c 1.482 -0.512 2.923 -1.112 4.317 -1.794 c 0.618 -0.302 1.28 -0.447 1.939 -0.447 c 1.202 0 2.392 0.482 3.28 1.369 l 1.644 1.644 c 0.36 0.36 0.832 0.54 1.303 0.54 c 0.472 0 0.943 -0.18 1.303 -0.54 l 10.888 -10.888 c 0.72 -0.72 0.72 -1.887 0 -2.607 l -1.644 -1.644 c -1.373 -1.373 -1.775 -3.474 -0.922 -5.219 c 0.681 -1.394 1.282 -2.835 1.794 -4.317 c 0.637 -1.845 2.42 -3.047 4.372 -3.047 h 2.293 c 1.018 0 1.843 -0.825 1.843 -1.843 V 37.301 c 0 -1.018 -0.825 -1.843 -1.843 -1.843 h -2.293 c -1.952 0 -3.735 -1.203 -4.372 -3.047 c -0.512 -1.482 -1.112 -2.923 -1.794 -4.317 c -0.853 -1.745 -0.451 -3.846 0.922 -5.219 l 1.644 -1.644 c 0.72 -0.72 0.72 -1.887 0 -2.607 L 71.376 7.736 c -0.36 -0.36 -0.832 -0.54 -1.303 -0.54 c -0.472 0 -0.944 0.18 -1.304 0.54 L 67.125 9.38 c -0.887 0.887 -2.078 1.369 -3.28 1.369 c -0.659 0 -1.321 -0.145 -1.939 -0.447 C 60.513 9.62 59.072 9.02 57.59 8.508 c -1.845 -0.637 -3.047 -2.42 -3.047 -4.372 V 1.843 C 54.542 0.825 53.717 0 52.699 0 L 52.699 0 z" style="stroke: none; stroke-width: 1; stroke-dasharray: none; stroke-linecap: butt; stroke-linejoin: miter; stroke-miterlimit: 10; fill: rgb(0,0,0); fill-rule: nonzero; opacity: 1;" transform=" matrix(1 0 0 1 0 0) " stroke-linecap="round" />
	<path d="M 45 21.249 v 6 c 5.007 0 9.638 2.027 13.039 5.707 c 3.398 3.676 5.05 8.47 4.654 13.5 c -0.676 8.581 -7.657 15.561 -16.237 16.238 c -0.485 0.038 -0.975 0.058 -1.456 0.058 c -5.008 0 -9.639 -2.027 -13.04 -5.707 c -3.397 -3.676 -5.05 -8.47 -4.653 -13.5 c 0.677 -8.58 7.657 -15.561 16.238 -16.238 c 0.484 -0.038 0.974 -0.058 1.456 -0.058 L 45 21.249 M 45 21.249 c -0.637 0 -1.28 0.025 -1.927 0.076 C 31.56 22.233 22.233 31.56 21.325 43.073 C 20.222 57.06 31.246 68.751 45 68.751 c 0.637 0 1.28 -0.025 1.928 -0.076 c 11.513 -0.908 20.84 -10.235 21.747 -21.748 C 69.778 32.94 58.754 21.249 45 21.249 L 45 21.249 z" style="stroke: none; stroke-width: 1; stroke-dasharray: none; stroke-linecap: butt; stroke-linejoin: miter; stroke-miterlimit: 10; fill: rgb(0,0,0); fill-rule: nonzero; opacity: 1;" transform=" matrix(1 0 0 1 0 0) " stroke-linecap="round" />
</g>
</g>
</svg>