<?xml version="1.0" encoding="utf-8"?>
<!-- Svg Vector Icons : http://www.onlinewebfonts.com/icon -->
<!DOCTYPE svg PUBLIC "-//W3C//DTD SVG 1.1//EN" "http://www.w3.org/Graphics/SVG/1.1/DTD/svg11.dtd">
<svg version="1.1" xmlns="http://www.w3.org/2000/svg" xmlns:xlink="http://www.w3.org/1999/xlink" x="0px" y="0px" viewBox="0 0 1000 1000" enable-background="new 0 0 1000 1000" xml:space="preserve">
<metadata> Svg Vector Icons : http://www.onlinewebfonts.com/icon </metadata>
<g><g transform="translate(0.000000,511.000000) scale(0.100000,-0.100000)"><path d="M4777.8,4780.1c-61.3-22.5-137-79.8-224.9-167.7C4422,4481.6,4409.8,4457,3990.6,3588c-458-948.8-529.6-1065.3-756.6-1253.4c-165.6-135-386.5-269.9-543.9-329.2c-96.1-36.8-402.8-92-1063.3-196.3c-511.2-77.7-973.3-157.5-1030.6-173.8c-323.1-94.1-525.5-353.7-492.8-633.9c18.4-157.5,120.6-341.5,276-496.9c75.7-75.7,404.9-392.6,732-705.5c402.8-384.4,623.7-611.4,678.9-695.2c171.8-263.8,278.1-578.7,300.6-883.3c10.2-141.1-8.2-290.4-143.1-1122.6c-85.9-525.5-155.4-1001.9-155.4-1055.1s18.4-159.5,42.9-235.1c102.2-333.3,429.4-478.5,795.4-351.7c73.6,24.5,496.9,241.3,938.6,480.5c443.7,239.2,860.8,453.9,924.2,474.4c278.1,94.1,785.2,106.3,1063.3,26.6c73.6-22.5,505-231.1,961-464.2c453.9-233.1,879.3-441.7,942.6-464.2c169.7-57.3,384.4-53.2,519.4,10.2c126.8,59.3,241.3,188.1,286.3,327.2c63.4,184,45,359.9-132.9,1331.1c-106.3,580.7-165.6,950.8-165.6,1042.8c0,300.6,118.6,689.1,288.3,952.9c53.2,79.8,337.4,380.3,795.4,834.3c648.2,644.1,717.7,719.8,779.1,848.6c57.3,118.6,67.5,165.6,69.5,286.3c0,122.7-8.2,161.5-61.3,257.7c-75.7,139-222.9,253.5-390.5,304.7c-69.5,22.5-543.9,96.1-1053.1,165.6c-1036.7,139-1143,165.6-1423.2,339.4c-173.8,108.4-427.3,339.4-519.3,470.3c-30.7,47-255.6,476.4-501,954.9C5471,4579.7,5424,4653.3,5213.3,4755.6C5088.6,4816.9,4904.6,4827.1,4777.8,4780.1z M4696,870.5c110.4-108.4,102.2-231.1-30.7-503c-141.1-292.4-368.1-460.1-644.1-476.4c-208.6-10.2-347.6,40.9-511.2,194.3c-153.4,141.1-288.3,394.6-302.6,568.4c-8.2,106.3-6.1,114.5,63.4,184c57.3,57.3,87.9,71.6,149.3,71.6c104.3,0,200.4-59.3,231.1-145.2c67.5-177.9,98.2-239.2,161.5-308.8c167.7-186.1,364-85.9,476.4,245.4c55.2,163.6,128.8,229,257.6,229C4620.4,929.8,4649,917.5,4696,870.5z M6650.8,860.3c87.9-87.9,92-177.9,18.4-370.1c-96.1-255.6-257.6-447.8-458-546c-139.1-69.5-421.2-67.5-564.3,2c-300.6,147.2-576.7,635.9-472.4,836.3c40.9,77.7,126.8,126.8,224.9,126.8c100.2,0,179.9-81.8,239.2-243.3c51.1-147.2,161.6-278.1,253.6-300.6c75.6-18.4,186.1,38.9,247.4,130.9c26.6,36.8,71.6,130.9,100.2,208.6c65.4,173.8,124.7,224.9,249.5,224.9C6567,929.8,6591.5,919.6,6650.8,860.3z M6609.9-734.7c77.7-77.7,92-175.8,40.9-274c-42.9-81.8-429.4-451.9-615.5-588.9c-435.6-321-926.3-470.3-1363.9-417.1c-460.1,55.2-877.2,267.9-1251.4,642.1c-247.4,245.4-325.1,364-312.9,470.3c20.4,153.4,190.2,257.6,323.1,194.2c32.7-16.3,116.5-98.1,188.1-182c247.4-296.5,615.5-541.9,926.3-621.6c69.5-18.4,202.4-32.7,296.5-32.7c441.7,2,805.7,188.1,1286.2,662.5c216.7,214.7,220.8,216.8,316.9,216.8C6526.1-665.1,6550.6-675.4,6609.9-734.7z"/></g></g>
</svg>