<?xml version="1.0" encoding="iso-8859-1"?>
<!-- Generator: Adobe Illustrator 19.0.0, SVG Export Plug-In . SVG Version: 6.00 Build 0)  -->
<svg version="1.1" id="Capa_1" xmlns="http://www.w3.org/2000/svg" xmlns:xlink="http://www.w3.org/1999/xlink" x="0px" y="0px"
	 viewBox="0 0 490 490" style="enable-background:new 0 0 490 490;" xml:space="preserve">
<g>
	<path d="M244.999,490c0,0,200.339-88.047,200.339-214.375c0-126.328,0-214.375,0-214.375s-12.105,1.729-31.047,1.729
		c-41.946,0-117.428-8.477-169.293-62.979c-51.86,54.498-127.344,62.979-169.292,62.979c-18.948,0-31.046-1.729-31.046-1.729
		s0,88.047,0,214.375C44.661,401.953,244.999,490,244.999,490z M75.286,93.604c0.139,0,0.281,0,0.421,0
		c40.355,0,111.807-7.329,169.292-52.354c57.484,45.025,128.937,52.354,169.293,52.354c0.14,0,0.281,0,0.422,0v182.021
		c0,80.589-112.93,152.688-169.739,180.586c-56.834-27.816-169.689-99.743-169.689-180.586V93.604z"/>
	<rect x="156.953" y="307.85" width="176.094" height="30.625"/>
	<path d="M227.524,229.97c-3.055-4.137-5.129-9.077-6.234-14.787l-27.144,3c2.075,14.073,6.859,24.969,14.353,32.686
		c7.483,7.717,17.218,12.334,29.217,13.828v19.504h15.078v-20.04c13.515-1.995,24.076-7.426,31.671-16.292
		c7.583-8.855,11.386-19.75,11.386-32.687c0-11.575-3.022-21.065-9.055-28.458c-6.034-7.394-17.364-13.416-34.002-18.067V126.76
		c6.724,3,10.883,8.71,12.479,17.141l26.307-3.535c-1.795-10.717-5.955-19.271-12.479-25.672
		c-6.513-6.39-15.279-10.271-26.307-11.631V92.457h-15.078v10.606c-11.921,1.215-21.478,5.809-28.648,13.772
		c-7.182,7.973-10.762,17.82-10.762,29.53c0,11.576,3.167,21.423,9.512,29.53c6.346,8.119,16.304,14.174,29.898,18.167v44.909
		C233.97,237.119,230.58,234.119,227.524,229.97z M252.795,198.678c6.245,1.851,10.727,4.516,13.471,7.984
		c2.732,3.457,4.104,7.595,4.104,12.379c0,5.352-1.628,10.014-4.885,13.984c-3.267,3.97-7.494,6.446-12.69,7.449V198.678z
		 M227.625,155.644c-2.22-3.257-3.323-6.769-3.323-10.561c0-4.149,1.216-7.929,3.636-11.364c2.431-3.423,5.687-5.854,9.78-7.282
		v37.08C233.212,161.521,229.844,158.889,227.625,155.644z"/>
</g>
<g>
</g>
<g>
</g>
<g>
</g>
<g>
</g>
<g>
</g>
<g>
</g>
<g>
</g>
<g>
</g>
<g>
</g>
<g>
</g>
<g>
</g>
<g>
</g>
<g>
</g>
<g>
</g>
<g>
</g>
</svg>
